<?xml version="1.0" encoding="iso-8859-1"?>
<!-- Generator: Adobe Illustrator 19.0.0, SVG Export Plug-In . SVG Version: 6.00 Build 0)  -->
<svg version="1.1" id="Capa_1" xmlns="http://www.w3.org/2000/svg" xmlns:xlink="http://www.w3.org/1999/xlink" x="0px" y="0px"
	 viewBox="0 0 512.023 512.023" style="enable-background:new 0 0 512.023 512.023;" xml:space="preserve">
<path style="fill:#F44336;" d="M493.248,160.021H256.021c-53.019-0.052-96.042,42.886-96.095,95.905
	c-0.016,16.468,4.204,32.663,12.255,47.028L53.568,99.434c86.393-111.815,247.073-132.423,358.888-46.03
	C448.365,81.149,476.249,117.946,493.248,160.021z"/>
<path style="fill:#FFC107;" d="M512.021,256.021c-0.118,141.336-114.664,255.882-256,256c-10.704,0.04-21.397-0.673-32-2.133
	l115.2-205.867c26.403-45.964,10.664-104.625-35.2-131.2c-14.521-8.407-31.008-12.824-47.787-12.8h237.013
	C505.705,190.491,512.083,223.103,512.021,256.021z"/>
<path style="fill:#4CAF50;" d="M339.221,304.021l-115.2,205.867h-0.213C83.62,492.176-15.666,364.172,2.046,223.984
	C7.779,178.609,25.57,135.6,53.568,99.434l118.613,203.52l0.64,1.067c26.451,45.95,85.143,61.757,131.093,35.307
	C318.592,330.879,330.773,318.698,339.221,304.021z"/>
<path style="fill:#F44336;" d="M339.221,304.021c-26.451,45.95-85.143,61.757-131.093,35.307
	c-14.677-8.449-26.858-20.63-35.307-35.307l-0.64-1.067c-25.921-46.251-9.439-104.758,36.812-130.679
	c14.366-8.051,30.561-12.271,47.028-12.255h0.213c16.779-0.024,33.266,4.393,47.787,12.8
	C349.886,199.396,365.624,258.057,339.221,304.021z"/>
<path style="fill:#2196F3;" d="M339.221,304.021c-26.451,45.95-85.143,61.757-131.093,35.307
	c-14.677-8.449-26.858-20.63-35.307-35.307l-0.64-1.067c-25.921-46.251-9.439-104.758,36.812-130.679
	c14.366-8.051,30.561-12.271,47.028-12.255h0.213c16.779-0.024,33.266,4.393,47.787,12.8
	C349.886,199.396,365.624,258.057,339.221,304.021z"/>
<path style="fill:#FAFAFA;" d="M255.659,362.688c-18.598-0.002-36.868-4.903-52.971-14.208
	c-16.237-9.391-29.722-22.883-39.104-39.125c-29.455-51.018-11.975-116.254,39.043-145.709c16.233-9.372,34.65-14.301,53.395-14.291
	c58.91-0.046,106.704,47.674,106.749,106.584c0.015,18.752-4.915,37.176-14.291,53.416l0,0
	C329.256,342.405,293.893,362.724,255.659,362.688z M256.213,170.688c-30.613-0.163-58.955,16.13-74.219,42.667
	c-23.564,40.86-9.543,93.087,31.317,116.651s93.087,9.543,116.651-31.317l0,0c23.564-40.814,9.58-93.003-31.234-116.568
	c-12.922-7.46-27.574-11.402-42.494-11.432H256.213z"/>
<path d="M256.021,512.021c-141.385,0-256-114.615-256-256s114.615-256,256-256s256,114.615,256,256
	C511.857,397.338,397.338,511.856,256.021,512.021z M256.021,21.354c-129.603,0-234.667,105.064-234.667,234.667
	s105.064,234.667,234.667,234.667s234.667-105.064,234.667-234.667C490.547,126.477,385.566,21.495,256.021,21.354z"/>
<path d="M255.851,362.688c-59.075,0.024-106.985-47.847-107.008-106.922c-0.024-59.075,47.847-106.985,106.922-107.008
	s106.985,47.847,107.008,106.922c0.019,48.394-32.455,90.772-79.189,103.339C274.539,361.446,265.216,362.679,255.851,362.688z
	 M256.149,170.688c-7.507,0.005-14.98,0.995-22.229,2.944c-45.255,12.24-72.019,58.848-59.78,104.103s58.848,72.019,104.103,59.78
	c45.255-12.24,72.019-58.848,59.78-104.103C328.018,196.42,294.47,170.718,256.149,170.688z"/>
<path d="M480.021,170.688h-224c-5.891,0-10.667-4.776-10.667-10.667c0-5.891,4.776-10.667,10.667-10.667h224
	c5.891,0,10.667,4.776,10.667,10.667C490.688,165.912,485.913,170.688,480.021,170.688z"/>
<path d="M172.821,314.688c-3.802,0.009-7.321-2.007-9.237-5.291L54.784,122.73c-3.247-4.915-1.895-11.532,3.02-14.78
	s11.532-1.895,14.78,3.02c0.232,0.352,0.443,0.716,0.633,1.093l108.885,186.624c2.969,5.088,1.251,11.62-3.837,14.589
	c-1.633,0.953-3.489,1.454-5.379,1.454L172.821,314.688z"/>
<path d="M234.688,501.354c-5.891-0.005-10.663-4.785-10.658-10.676c0.002-1.819,0.468-3.608,1.356-5.196L329.92,298.816
	c2.875-5.143,9.374-6.981,14.517-4.107c5.143,2.875,6.981,9.374,4.107,14.517L244.011,495.893
	C242.123,499.269,238.556,501.359,234.688,501.354z"/>
<g>
</g>
<g>
</g>
<g>
</g>
<g>
</g>
<g>
</g>
<g>
</g>
<g>
</g>
<g>
</g>
<g>
</g>
<g>
</g>
<g>
</g>
<g>
</g>
<g>
</g>
<g>
</g>
<g>
</g>
</svg>
