<?xml version="1.0" encoding="iso-8859-1"?>
<!-- Generator: Adobe Illustrator 19.0.0, SVG Export Plug-In . SVG Version: 6.00 Build 0)  -->
<svg version="1.1" id="Capa_1" xmlns="http://www.w3.org/2000/svg" xmlns:xlink="http://www.w3.org/1999/xlink" x="0px" y="0px"
	 viewBox="0 0 512 512" style="enable-background:new 0 0 512 512;" xml:space="preserve">
<circle style="fill:#B9EAFF;" cx="256" cy="256" r="256"/>
<path style="fill:#35CCFF;" d="M271.748,511.504c132.881-8.067,238.381-117.484,240.207-251.961L378.013,125.601L247,72.333
	L121.667,127L67.224,229.893l115.864,115.864l-27.644,49.442L271.748,511.504z"/>
<path style="fill:#0078D7;" d="M416.981,285.768H176.288c0,0,1.612,77.903,98.856,77.903c0,0,47.816,3.761,105.303-30.624v77.903
	c0,0-41.369,27.938-114.437,27.938s-154.731-54.801-154.731-143.986s65.546-127.331,88.648-135.927c0,0-27.4,29.549-21.49,58.024
	h130.555c0,0,11.82-81.127-72.53-81.127s-134.315,48.891-169.237,94.021c0,0,25.789-164.939,174.879-164.939
	C389.044,64.954,416.981,179.928,416.981,285.768z"/>
<g>
	<path style="fill:#005691;" d="M416.981,285.768c0-102.499-26.203-213.562-161.315-220.473v72.198
		c63.235,11.401,53.325,79.506,53.325,79.506h-53.325v68.77L416.981,285.768L416.981,285.768z"/>
	<path style="fill:#005691;" d="M275.144,363.671c-6.979,0-13.449-0.413-19.477-1.158v76.014c3.461,0.24,6.912,0.361,10.344,0.361
		c73.068,0,114.437-27.938,114.437-27.938v-77.903C322.96,367.432,275.144,363.671,275.144,363.671z"/>
</g>
<g>
</g>
<g>
</g>
<g>
</g>
<g>
</g>
<g>
</g>
<g>
</g>
<g>
</g>
<g>
</g>
<g>
</g>
<g>
</g>
<g>
</g>
<g>
</g>
<g>
</g>
<g>
</g>
<g>
</g>
</svg>
