<?xml version="1.0" encoding="iso-8859-1"?>
<!-- Generator: Adobe Illustrator 19.0.0, SVG Export Plug-In . SVG Version: 6.00 Build 0)  -->
<svg version="1.1" id="Capa_1" xmlns="http://www.w3.org/2000/svg" xmlns:xlink="http://www.w3.org/1999/xlink" x="0px" y="0px"
	 viewBox="0 0 512 512" style="enable-background:new 0 0 512 512;" xml:space="preserve">
<circle style="fill:#9330B2;" cx="256" cy="256" r="256"/>
<path style="fill:#471252;" d="M512,256c0-8.436-0.42-16.773-1.217-24.999L395.949,116.05c-28.228-28.228-74.159-28.228-102.387,0
	l-40.535,40.535c-22.206,22.206-26.931,55.361-14.201,82.241c-26.88-12.73-60.035-8.005-82.241,14.201l-40.534,40.534
	c-28.228,28.228-28.229,74.159-0.001,102.387l114.823,114.823C239.141,511.577,247.521,512,256,512C397.385,512,512,397.385,512,256
	z"/>
<path style="fill:#00EFD1;" d="M253.028,258.971c-28.228-28.228-28.228-74.158,0-102.387l40.535-40.535
	c28.228-28.228,74.159-28.228,102.387,0s28.229,74.159,0.001,102.387l-40.535,40.535C327.187,287.2,281.256,287.2,253.028,258.971z
	 M370.912,141.087c-14.423-14.423-37.89-14.422-52.312,0l-40.535,40.535c-14.423,14.423-14.423,37.889,0,52.312
	c14.423,14.423,37.89,14.423,52.313,0.001l40.535-40.535C385.334,178.978,385.334,155.51,370.912,141.087z"/>
<path style="fill:#00AD95;" d="M395.951,116.049l-25.039,25.039c14.425,14.425,14.425,37.887,0,52.312l-40.539,40.538
	c-8.096,8.096-19.042,11.646-29.642,10.649c-8.273-0.764-16.341-4.32-22.67-10.649l-25.031,25.031
	c5.827,5.827,12.41,10.458,19.445,13.874c0.233,0.12,0.467,0.226,0.707,0.339c26.87,12.728,60.026,7.997,82.229-14.206
	l40.538-40.538C424.178,190.21,424.178,144.277,395.951,116.049z"/>
<path style="fill:#FF7A53;" d="M116.051,395.948c-28.228-28.228-28.228-74.159,0.001-102.387l40.534-40.534
	c28.228-28.228,74.158-28.228,102.387,0c28.228,28.228,28.229,74.159,0.001,102.387l-40.534,40.534
	C190.21,424.177,144.279,424.177,116.051,395.948z M233.935,278.064c-14.423-14.423-37.89-14.422-52.312,0l-40.534,40.534
	c-14.423,14.423-14.423,37.89-0.001,52.313c14.423,14.423,37.89,14.423,52.313,0l40.534-40.534
	C248.357,315.955,248.357,292.487,233.935,278.064z"/>
<path style="fill:#FF4F19;" d="M273.183,273.182c-0.113-0.24-0.219-0.474-0.339-0.707c-3.415-7.036-8.047-13.619-13.873-19.445
	l-25.032,25.031c6.329,6.329,9.885,14.397,10.649,22.67c0.997,10.599-2.553,21.546-10.649,29.642L193.4,370.911
	c-14.425,14.425-37.887,14.425-52.312,0L116.05,395.95c28.228,28.228,74.161,28.228,102.389,0l40.539-40.539
	C281.18,333.209,285.911,300.052,273.183,273.182z"/>
<path style="fill:#FFDBA9;" d="M196.124,318.349c-10.503-9.149-11.106-24.682-1.852-33.936l90.142-90.142
	c9.254-9.254,24.788-8.651,33.936,1.853c8.027,9.216,8.067,22.774-0.182,31.023l-91.02,91.02
	C218.897,326.417,205.34,326.377,196.124,318.349z"/>
<path style="fill:#FFB74F;" d="M318.169,227.15l-91.019,91.019c-8.252,8.252-21.814,8.21-31.028,0.184
	c-0.446-0.389-0.87-0.785-1.28-1.195l122.315-122.315c0.41,0.41,0.806,0.834,1.195,1.28
	C326.379,205.335,326.421,218.898,318.169,227.15z"/>
<g>
</g>
<g>
</g>
<g>
</g>
<g>
</g>
<g>
</g>
<g>
</g>
<g>
</g>
<g>
</g>
<g>
</g>
<g>
</g>
<g>
</g>
<g>
</g>
<g>
</g>
<g>
</g>
<g>
</g>
</svg>
