<?xml version="1.0" encoding="iso-8859-1"?>
<!-- Generator: Adobe Illustrator 19.0.0, SVG Export Plug-In . SVG Version: 6.00 Build 0)  -->
<svg version="1.1" id="Capa_1" xmlns="http://www.w3.org/2000/svg" xmlns:xlink="http://www.w3.org/1999/xlink" x="0px" y="0px"
	 viewBox="0 0 511.999 511.999" style="enable-background:new 0 0 511.999 511.999;" xml:space="preserve">
<path style="fill:#5CBD9B;" d="M115.936,36.004h-20v20c0,33.47,13.7,63.74,35.8,85.499v0.01l104.199,32.54v-3.05v-15
	C235.935,89.733,182.205,36.004,115.936,36.004z"/>
<path style="fill:#57555C;" d="M310.074,15.864c-7.81-7.81-20.47-7.81-28.28,0c-29.57,29.57-45.86,68.889-45.86,110.709v84.429
	l40,2.31v-86.739c0-31.14,12.13-60.41,34.14-82.429C317.884,36.334,317.884,23.674,310.074,15.864z"/>
<path style="fill:#ED5151;" d="M351.064,136.123c61.579,0,104.499,69.219,104.499,140.949c0,84.259-59.9,224.928-140.219,224.928
	c-4.51,0-25.59-7.41-32.46-11.96c-8.23-5.45-17.82-7.64-27.14-6.58c-9.32-1.06-18.9,1.13-27.14,6.58
	c-6.87,4.55-27.94,11.96-32.45,11.96c-80.319,0-140.219-140.669-140.219-224.928c0-59.96,29.99-117.989,75.799-135.559
	c8.99-3.45,18.59-5.35,28.69-5.39c28.6-0.12,48.49,25.87,62.34,32.82c21.111,10.58,45.346,10.357,65.959,0
	C302.564,162.003,322.474,136.123,351.064,136.123z"/>
<path d="M356.184,186.002c5.52,0,10-4.48,10-10s-4.48-10-10-10c-5.52,0-10,4.48-10,10S350.664,186.002,356.184,186.002z"/>
<path d="M405.813,277.072c0,5.522,4.478,10,10,10c5.522,0,10-4.478,10-10c0-32.44-10.523-64.584-28.151-85.986
	c-3.511-4.263-9.812-4.874-14.076-1.361c-4.263,3.511-4.873,9.813-1.361,14.076C396.995,221.733,405.813,249.125,405.813,277.072z"
	/>
<path d="M68.132,188.601c-14.152,25.897-21.946,57.317-21.946,88.47c0,44.688,16.179,103.119,41.218,148.862
	c30.38,55.501,69.09,86.065,109.001,86.065c7.342,0,30.524-8.69,37.967-13.619c10.689-7.068,20.107-4.683,22.753-4.985
	c7.136-0.813,14.413,0.959,20.489,4.982c7.447,4.932,30.636,13.622,37.981,13.622c39.911,0,78.621-30.565,109.001-86.065
	c25.039-45.743,41.218-104.175,41.218-148.862c0-37.472-11.288-75.056-30.971-103.115c-21.637-30.847-51.301-47.834-83.528-47.834
	c-30.974,0-52.242,24.966-65.13,32.915v-32.465c0-28.46,11.085-55.224,31.21-75.358c11.725-11.723,11.728-30.696,0.001-42.421
	c-11.721-11.723-30.696-11.727-42.422-0.001c-23.296,23.295-38.832,52.277-45.333,83.812
	c-22.275-39.706-64.779-66.601-113.455-66.601h-20c-0.06,0-0.118,0.008-0.178,0.009c-5.546,0.096-9.826,4.664-9.822,9.996v19.995
	c0,30.386,10.326,59.111,29.32,82.255C96.668,148.872,80.463,166.035,68.132,188.601z M246.185,126.573
	c0-39.148,15.247-75.954,42.932-103.639c3.905-3.905,10.227-3.909,14.138,0.001c3.899,3.901,3.917,10.218-0.003,14.139
	c-23.902,23.915-37.066,55.699-37.066,89.499v39.378c-6.62,1.089-13.366,1.11-20,0.063
	C246.185,154.112,246.185,138.488,246.185,126.573z M226.185,156.003v3.273c-18.624-11.127-41.121-44.433-91.382-29.268
	c-17.551-19.244-27.552-43.683-28.53-69.774l42.841,42.841c3.907,3.905,10.236,3.904,14.143,0c3.905-3.905,3.905-10.237,0-14.143
	l-42.839-42.839C179.117,48.326,226.185,96.766,226.185,156.003z M135.566,150.85c0.001,0,0.001-0.001,0.002-0.001
	c8.082-3.102,16.543-4.691,25.149-4.726c0.053,0,0.104,0,0.156,0c24.405,0,42.18,23.992,57.661,31.761
	c23.567,11.81,51.141,11.949,74.922-0.002c15.462-7.752,33.354-31.759,57.857-31.759c25.521,0,49.371,13.964,67.154,39.318
	c17.378,24.774,27.345,58.173,27.345,91.631c0,41.58-15.215,96.242-38.762,139.26c-15.439,28.207-47.798,75.488-91.21,75.667
	c-4.299-0.549-21.95-6.829-27.186-10.297c-9.672-6.404-21.232-9.33-32.662-8.294c-11.43-1.029-22.979,1.891-32.661,8.294
	c-5.236,3.468-22.881,9.748-27.176,10.297c-43.413-0.179-75.77-47.462-91.21-75.667c-23.547-43.018-38.762-97.68-38.762-139.26
	C66.186,219.353,95.365,166.269,135.566,150.85z"/>
<g>
</g>
<g>
</g>
<g>
</g>
<g>
</g>
<g>
</g>
<g>
</g>
<g>
</g>
<g>
</g>
<g>
</g>
<g>
</g>
<g>
</g>
<g>
</g>
<g>
</g>
<g>
</g>
<g>
</g>
</svg>
