<?xml version="1.0" encoding="iso-8859-1"?>
<!-- Generator: Adobe Illustrator 19.0.0, SVG Export Plug-In . SVG Version: 6.00 Build 0)  -->
<svg version="1.1" id="Capa_1" xmlns="http://www.w3.org/2000/svg" xmlns:xlink="http://www.w3.org/1999/xlink" x="0px" y="0px"
	 viewBox="0 0 512 512" style="enable-background:new 0 0 512 512;" xml:space="preserve">
<g>
	<circle style="fill:#FF5722;" cx="54.674" cy="256" r="53.333"/>
	<circle style="fill:#FF5722;" cx="406.61" cy="458.667" r="53.333"/>
	<circle style="fill:#FF5722;" cx="406.61" cy="53.333" r="53.333"/>
	<path style="fill:#FF5722;" d="M262.098,147.669c2.383,4.129,7.216,6.176,11.84,5.013c55.924-14.4,113.089,18.592,128.597,74.219
		c1.298,4.593,5.489,7.764,10.261,7.765h87.168c5.891,0.003,10.669-4.77,10.673-10.661c0-0.566-0.045-1.132-0.134-1.691
		c-6.168-38.801-22.959-75.137-48.512-104.981c-3.524-4.066-9.524-4.871-13.995-1.877c-12.228,8.182-26.61,12.548-41.323,12.544
		c-40.78-0.145-73.959-32.869-74.667-73.643c-0.078-5.395-4.171-9.882-9.536-10.453c-33.448-3.504-67.251,0.925-98.667,12.928
		c-5.501,2.108-8.251,8.277-6.143,13.778c0.201,0.524,0.443,1.032,0.724,1.518L262.098,147.669z"/>
	<path style="fill:#FF5722;" d="M499.986,277.333h-87.168c-4.772,0.001-8.963,3.173-10.261,7.765
		c-15.489,55.642-72.67,88.643-128.597,74.219c-4.624-1.163-9.457,0.884-11.84,5.013l-43.605,75.541
		c-2.947,5.101-1.201,11.625,3.9,14.572c0.486,0.281,0.994,0.523,1.518,0.724c31.384,12.127,65.217,16.56,98.667,12.928
		c5.365-0.571,9.458-5.059,9.536-10.453c0.472-41.14,34.205-74.109,75.345-73.637c14.435,0.165,28.511,4.521,40.516,12.538
		c4.491,2.991,10.507,2.157,14.016-1.941c25.542-29.826,42.332-66.138,48.512-104.917c0.931-5.817-3.03-11.287-8.847-12.218
		C501.118,277.378,500.552,277.333,499.986,277.333z"/>
	<path style="fill:#FF5722;" d="M223.548,330.261c-40.254-41.333-40.254-107.211,0-148.544c3.338-3.429,3.984-8.662,1.579-12.8
		l-43.541-75.371c-1.564-2.711-4.239-4.599-7.317-5.163c-3.058-0.527-6.198,0.246-8.661,2.133
		c-30.98,25.188-54.276,58.557-67.243,96.32c-1.451,4.211-0.133,8.881,3.307,11.712c31.735,25.306,36.947,71.546,11.641,103.281
		c-3.432,4.304-7.337,8.209-11.641,11.641c-3.44,2.831-4.758,7.501-3.307,11.712c12.975,37.729,36.263,71.067,67.221,96.235
		c1.905,1.549,4.286,2.392,6.741,2.389c0.644-0.004,1.286-0.061,1.92-0.171c3.078-0.564,5.754-2.452,7.317-5.163l43.541-75.413
		C227.516,338.928,226.879,333.696,223.548,330.261z"/>
</g>
<path d="M54.674,309.333C25.218,309.333,1.34,285.455,1.34,256c0-29.455,23.878-53.333,53.333-53.333s53.333,23.878,53.333,53.333
	l0,0C108.007,285.455,84.129,309.333,54.674,309.333z M54.674,224c-17.673,0-32,14.327-32,32s14.327,32,32,32s32-14.327,32-32l0,0
	C86.674,238.327,72.347,224,54.674,224z"/>
<path d="M406.674,512c-29.455,0-53.333-23.878-53.333-53.333s23.878-53.333,53.333-53.333s53.333,23.878,53.333,53.333
	S436.129,512,406.674,512z M406.674,426.667c-17.673,0-32,14.327-32,32s14.327,32,32,32s32-14.327,32-32
	S424.347,426.667,406.674,426.667z"/>
<path d="M406.674,106.667c-29.455,0-53.333-23.878-53.333-53.333S377.218,0,406.674,0s53.333,23.878,53.333,53.333
	S436.129,106.667,406.674,106.667z M406.674,21.333c-17.673,0-32,14.327-32,32s14.327,32,32,32s32-14.327,32-32
	S424.347,21.333,406.674,21.333z"/>
<path d="M499.986,234.667h-87.168c-4.772-0.001-8.963-3.173-10.261-7.765c-15.537-55.604-72.679-88.583-128.597-74.219
	c-4.624,1.163-9.457-0.884-11.84-5.013l-43.627-75.541c-2.947-5.101-1.201-11.625,3.9-14.572c0.486-0.281,0.994-0.523,1.518-0.724
	c31.42-11.987,65.219-16.416,98.667-12.928c5.365,0.571,9.458,5.059,9.536,10.453c0.696,40.737,33.817,73.451,74.56,73.643
	c14.713,0.006,29.096-4.36,41.323-12.544c4.491-2.991,10.507-2.157,14.016,1.941c25.543,29.825,42.333,66.138,48.512,104.917
	c0.931,5.817-3.03,11.287-8.847,12.218C501.118,234.622,500.552,234.667,499.986,234.667z M420.604,213.333h66.453
	c-6.223-27.35-18.378-53-35.605-75.136c-13.795,7.327-29.18,11.151-44.8,11.136c-48.616-0.27-89.424-36.697-95.189-84.971
	c-22.992-1.405-46.048,1.363-68.053,8.171l33.259,57.6C338.599,118.58,399.705,153.902,420.604,213.333z"/>
<path d="M300.007,469.333c-26.02-0.013-51.815-4.814-76.096-14.165c-5.501-2.108-8.251-8.277-6.143-13.778
	c0.201-0.524,0.443-1.032,0.724-1.518l43.605-75.541c2.383-4.129,7.216-6.176,11.84-5.013
	c55.922,14.388,113.079-18.6,128.597-74.219c1.3-4.6,5.502-7.773,10.283-7.765h87.168c5.891-0.003,10.669,4.77,10.673,10.661
	c0,0.566-0.045,1.132-0.134,1.691c-6.173,38.804-22.972,75.14-48.533,104.981c-3.509,4.099-9.525,4.932-14.016,1.941
	c-34.216-22.848-80.475-13.633-103.323,20.583c-8.017,12.005-12.373,26.081-12.538,40.516c-0.078,5.395-4.171,9.882-9.536,10.453
	C315.08,468.951,307.546,469.343,300.007,469.333z M243.41,439.467c21.985,6.839,45.027,9.643,68.011,8.277
	c5.719-48.34,46.577-84.833,95.253-85.077c15.62-0.015,31.005,3.809,44.8,11.136c17.219-22.138,29.367-47.787,35.584-75.136h-66.453
	c-20.929,59.407-82.012,94.715-143.936,83.2L243.41,439.467z"/>
<path d="M172.348,423.787c-2.455,0.003-4.836-0.841-6.741-2.389c-30.969-25.167-54.27-58.504-67.264-96.235
	c-1.447-4.216-0.119-8.887,3.328-11.712c31.735-25.325,36.932-71.58,11.607-103.315c-3.424-4.29-7.317-8.184-11.607-11.607
	c-3.447-2.825-4.775-7.496-3.328-11.712c12.998-37.723,36.299-71.052,67.264-96.213c2.46-1.894,5.603-2.668,8.661-2.133
	c3.078,0.564,5.754,2.452,7.317,5.163l43.541,75.328c2.405,4.138,1.759,9.371-1.579,12.8c-40.277,41.324-40.277,107.22,0,148.544
	c3.338,3.429,3.984,8.662,1.579,12.8l-43.541,75.349c-1.564,2.711-4.239,4.599-7.317,5.163
	C173.634,423.724,172.992,423.781,172.348,423.787z M120.935,324.885c10.546,27.29,27.182,51.814,48.64,71.701l33.088-57.387
	c-41.088-47.857-41.088-118.543,0-166.4l-33.088-57.387c-21.458,19.888-38.094,44.411-48.64,71.701
	c38.038,35.86,39.804,95.767,3.944,133.806c-1.276,1.353-2.591,2.668-3.944,3.944L120.935,324.885z"/>
<g>
</g>
<g>
</g>
<g>
</g>
<g>
</g>
<g>
</g>
<g>
</g>
<g>
</g>
<g>
</g>
<g>
</g>
<g>
</g>
<g>
</g>
<g>
</g>
<g>
</g>
<g>
</g>
<g>
</g>
</svg>
