<svg id="Layer_1" enable-background="new 0 0 256 256" height="512" viewBox="0 0 256 256" width="512" xmlns="http://www.w3.org/2000/svg"><path d="m195.893 202.437h-135.786v-9.948c0-4.102 3.325-7.427 7.427-7.427h120.932c4.102 0 7.427 3.325 7.427 7.427z" fill="#7bac51"/><path d="m188.466 185.061h-8.392c4.102 0 7.427 3.325 7.427 7.427v9.948h8.392v-9.948c0-4.102-3.325-7.427-7.427-7.427z" fill="#5d8e33"/><path d="m67.534 185.061h8.392c-4.102 0-7.427 3.325-7.427 7.427v9.948h-8.392v-9.948c0-4.102 3.325-7.427 7.427-7.427z" fill="#99ca6f"/><path d="m88.14 172.342h79.72v12.719h-79.72z" fill="#5d8e33"/><path d="m195.893 204.437h-135.786c-1.104 0-2-.896-2-2v-9.948c0-5.198 4.229-9.427 9.427-9.427h120.933c5.198 0 9.427 4.229 9.427 9.427v9.948c-.001 1.104-.896 2-2.001 2zm-133.786-4h131.786v-7.948c0-2.992-2.435-5.427-5.427-5.427h-120.932c-2.992 0-5.427 2.435-5.427 5.427z" fill="#690589"/><path d="m167.86 187.062h-79.72c-1.104 0-2-.896-2-2v-12.719c0-1.104.896-2 2-2h79.72c1.104 0 2 .896 2 2v12.719c0 1.104-.896 2-2 2zm-77.72-4h75.72v-8.719h-75.72z" fill="#690589"/><path d="m224.635 172.342h-193.27c-4.102 0-7.427-3.325-7.427-7.427v-118.997c0-4.102 3.325-7.427 7.427-7.427h193.271c4.102 0 7.427 3.325 7.427 7.427v118.998c-.001 4.101-3.326 7.426-7.428 7.426z" fill="#f4efed"/><path d="m117.058 101.724v-22.188l-24.422 3.093v19.095z" fill="#fcc24c"/><path d="m123.865 101.724h32.677v-26.819l-32.677 4.138z" fill="#fcc24c"/><path d="m117.058 108.531h-24.422v19.361l24.422 4.075z" fill="#fcc24c"/><path d="m123.865 108.531v24.086l32.677 5.453v-29.539z" fill="#fcc24c"/><path d="m224.635 38.491h-8.392c4.102 0 7.427 3.325 7.427 7.427v118.998c0 4.102-3.325 7.427-7.427 7.427h8.392c4.102 0 7.427-3.325 7.427-7.427v-118.998c0-4.102-3.325-7.427-7.427-7.427z" fill="#d6d1cf"/><path d="m31.365 172.342h8.392c-4.102 0-7.427-3.325-7.427-7.427v-118.997c0-4.102 3.325-7.427 7.427-7.427h-8.392c-4.102 0-7.427 3.325-7.427 7.427v118.998c0 4.101 3.325 7.426 7.427 7.426z" fill="#fff"/><g fill="#690589"><path d="m224.635 174.343h-193.27c-5.198 0-9.427-4.229-9.427-9.428v-118.997c0-5.198 4.229-9.427 9.427-9.427h193.271c5.198 0 9.427 4.229 9.427 9.427v118.997c-.001 5.198-4.23 9.428-9.428 9.428zm-193.27-133.852c-2.993 0-5.427 2.435-5.427 5.427v118.997c0 2.993 2.435 5.428 5.427 5.428h193.271c2.993 0 5.427-2.435 5.427-5.428v-118.997c0-2.992-2.435-5.427-5.427-5.427z"/><path d="m30.651 71c-1.104 0-2-.896-2-2v-12c0-1.104.896-2 2-2s2 .896 2 2v12c0 1.104-.895 2-2 2z"/><path d="m117.058 103.724h-24.422c-1.104 0-2-.896-2-2v-19.095c0-1.008.75-1.857 1.749-1.984l24.421-3.093c.57-.072 1.143.104 1.574.484.431.379.678.926.678 1.5v22.188c0 1.104-.896 2-2 2zm-22.422-4h20.421v-17.918l-20.421 2.586z"/><path d="m156.542 103.724h-32.677c-1.104 0-2-.896-2-2v-22.681c0-1.008.75-1.857 1.749-1.984l32.677-4.138c.569-.073 1.143.104 1.574.484.431.379.678.926.678 1.5v26.818c-.001 1.105-.896 2.001-2.001 2.001zm-30.677-4h28.677v-22.549l-28.677 3.631z"/><path d="m117.058 133.968c-.109 0-.22-.009-.329-.027l-24.421-4.076c-.964-.161-1.671-.995-1.671-1.973v-19.36c0-1.104.896-2 2-2h24.421c1.104 0 2 .896 2 2v23.437c0 .588-.259 1.146-.708 1.526-.364.307-.823.473-1.292.473zm-22.422-7.771 20.421 3.409v-19.075h-20.421z"/><path d="m156.542 140.07c-.109 0-.22-.009-.329-.027l-32.677-5.454c-.964-.161-1.671-.995-1.671-1.973v-24.085c0-1.104.896-2 2-2h32.677c1.104 0 2 .896 2 2v29.539c0 .588-.259 1.146-.708 1.526-.363.308-.822.474-1.292.474zm-30.677-9.148 28.677 4.787v-25.178h-28.677z"/></g><path d="m66.751 217.509h-56.837c-3.266 0-5.914-2.648-5.914-5.914v-90.833c0-3.266 2.648-5.914 5.914-5.914h56.838c3.266 0 5.914 2.648 5.914 5.914v90.833c-.001 3.266-2.649 5.914-5.915 5.914z" fill="#f4efed"/><path d="m66.751 114.849h-5.914c3.266 0 5.914 2.648 5.914 5.914v90.833c0 3.266-2.648 5.914-5.914 5.914h5.914c3.266 0 5.914-2.648 5.914-5.914v-90.833c0-3.266-2.648-5.914-5.914-5.914z" fill="#d6d1cf"/><path d="m9.914 217.509h5.914c-3.266 0-5.914-2.648-5.914-5.914v-90.833c0-3.266 2.648-5.914 5.914-5.914h-5.914c-3.266 0-5.914 2.648-5.914 5.914v90.833c0 3.266 2.648 5.914 5.914 5.914z" fill="#fff"/><path d="m51.518 124.623h-26.371c-1.662 0-3.163-.994-3.812-2.525l-3.07-7.249h40.135l-3.07 7.249c-.649 1.53-2.15 2.525-3.812 2.525z" fill="#7bac51"/><path d="m66.751 219.509h-56.837c-4.364 0-7.914-3.55-7.914-7.913v-90.833c0-4.364 3.55-7.914 7.914-7.914h56.837c4.364 0 7.914 3.55 7.914 7.914v90.833c0 4.363-3.55 7.913-7.914 7.913zm-56.837-102.66c-2.158 0-3.914 1.756-3.914 3.914v90.833c0 2.157 1.756 3.913 3.914 3.913h56.837c2.158 0 3.914-1.756 3.914-3.913v-90.833c0-2.158-1.756-3.914-3.914-3.914z" fill="#690589"/><path d="m51.518 126.623h-26.371c-2.471 0-4.69-1.471-5.653-3.745l-3.07-7.249c-.261-.618-.196-1.325.174-1.885.371-.56.997-.896 1.667-.896h40.134c.671 0 1.297.336 1.667.896s.436 1.267.174 1.885l-3.07 7.249c-.963 2.275-3.182 3.745-5.652 3.745zm-30.234-9.774 1.893 4.469c.335.793 1.109 1.306 1.97 1.306h26.371c.861 0 1.634-.513 1.971-1.306l1.892-4.469z" fill="#690589"/><path d="m247.402 98.314h-79.346c-2.539 0-4.598 2.059-4.598 4.598v109.999c0 2.539 2.059 4.598 4.598 4.598h79.346c2.539 0 4.598-2.059 4.598-4.598v-109.999c0-2.539-2.059-4.598-4.598-4.598z" fill="#7bac51"/><path d="m247.402 98.314h-7.78c2.54 0 4.598 2.058 4.598 4.598v109.999c0 2.54-2.059 4.598-4.598 4.598h7.78c2.539 0 4.598-2.058 4.598-4.598v-109.999c0-2.54-2.059-4.598-4.598-4.598z" fill="#5d8e33"/><path d="m168.056 98.314h7.78c-2.539 0-4.598 2.058-4.598 4.598v109.999c0 2.54 2.059 4.598 4.598 4.598h-7.78c-2.539 0-4.598-2.058-4.598-4.598v-109.999c0-2.54 2.058-4.598 4.598-4.598z" fill="#99ca6f"/><path d="m247.402 219.509h-79.346c-3.638 0-6.598-2.96-6.598-6.598v-109.999c0-3.638 2.959-6.598 6.598-6.598h79.346c3.638 0 6.598 2.96 6.598 6.598v109.999c0 3.638-2.96 6.598-6.598 6.598zm-79.346-119.195c-1.432 0-2.598 1.165-2.598 2.598v109.999c0 1.433 1.166 2.598 2.598 2.598h79.346c1.433 0 2.598-1.165 2.598-2.598v-109.999c0-1.433-1.166-2.598-2.598-2.598z" fill="#690589"/><path d="m172.269 107.801h70.92v91.944h-70.92z" fill="#f4efed"/><path d="m243.189 201.745h-70.92c-1.104 0-2-.896-2-2v-91.943c0-1.104.896-2 2-2h70.92c1.104 0 2 .896 2 2v91.943c0 1.105-.896 2-2 2zm-68.92-4h66.92v-87.943h-66.92z" fill="#690589"/><path d="m211.407 208.821c0 2.032-1.647 3.678-3.678 3.678-2.032 0-3.678-1.647-3.678-3.678s1.647-3.678 3.678-3.678 3.678 1.647 3.678 3.678z" fill="#690589"/><path d="m226.77 171.427h-38.082v-7.99c0-10.516 8.525-19.041 19.041-19.041 10.516 0 19.041 8.525 19.041 19.041z" fill="#7bac51"/><path d="m226.77 173.427h-38.082c-1.104 0-2-.896-2-2v-7.989c0-11.602 9.439-21.041 21.041-21.041s21.041 9.439 21.041 21.041v7.989c0 1.104-.895 2-2 2zm-36.082-4h34.082v-5.989c0-9.396-7.645-17.041-17.041-17.041s-17.041 7.645-17.041 17.041z" fill="#690589"/><path d="m195.298 150.575c-.512 0-1.023-.195-1.414-.586l-7.132-7.131c-.781-.78-.781-2.047 0-2.828s2.047-.781 2.829 0l7.132 7.131c.781.78.781 2.047 0 2.828-.391.391-.903.586-1.415.586z" fill="#690589"/><path d="m220.159 150.575c-.512 0-1.024-.195-1.415-.586-.781-.781-.781-2.048 0-2.828l7.132-7.131c.781-.781 2.047-.781 2.829 0 .781.781.781 2.048 0 2.828l-7.132 7.131c-.39.391-.902.586-1.414.586z" fill="#690589"/><path d="m199.306 164.682c-1.104 0-2-.896-2-2v-3.776c0-1.104.896-2 2-2s2 .896 2 2v3.776c0 1.104-.895 2-2 2z" fill="#690589"/><path d="m216.152 164.682c-1.104 0-2-.896-2-2v-3.776c0-1.104.896-2 2-2s2 .896 2 2v3.776c0 1.104-.896 2-2 2z" fill="#690589"/><path d="m49.099 169.957c0-3.569 2.192-6.623 5.301-7.898-2.384-3.946-6.967-5.738-14.589-2.541-.944.396-2.018.396-2.962 0-18.514-7.764-19.129 13.863-13.736 24.457 4.285 8.417 11.059 6.049 13.897 4.552.826-.436 1.812-.436 2.638 0 2.838 1.497 9.612 3.865 13.897-4.552.858-1.685 1.562-3.651 2.068-5.732-3.736-.91-6.514-4.269-6.514-8.286z" fill="#ff4397"/><path d="m39.986 145.584c-2.066 2.066-2.874 4.906-2.443 7.586 2.68.431 5.52-.377 7.586-2.443s2.874-4.906 2.443-7.586c-2.68-.431-5.521.377-7.586 2.443z" fill="#ff4397"/><path d="m45.161 192.014c-2.693 0-5.065-.989-6.445-1.717-.242-.129-.531-.128-.772-.001-1.89.998-5.641 2.484-9.526 1.25-2.924-.929-5.309-3.171-7.087-6.664-3.982-7.823-4.682-20.036.624-25.749 2.45-2.637 7.156-5.027 15.668-1.46.45.189.965.189 1.416 0 10.447-4.382 15.182.218 17.074 3.352.302.5.371 1.106.187 1.661-.183.555-.6 1.002-1.14 1.224-2.466 1.012-4.06 3.386-4.06 6.048 0 3.02 2.051 5.628 4.987 6.343 1.073.262 1.731 1.343 1.47 2.416-.544 2.239-1.315 4.372-2.229 6.166-1.778 3.494-4.163 5.736-7.087 6.664-1.048.332-2.086.467-3.08.467zm-6.831-5.814c.773 0 1.547.187 2.252.558 1.336.706 3.951 1.769 6.449.976 1.866-.592 3.458-2.162 4.733-4.666.54-1.06 1.023-2.27 1.426-3.562-3.667-1.697-6.09-5.38-6.09-9.549 0-3.408 1.619-6.522 4.274-8.477-2.34-2.102-5.958-2.143-10.79-.118-1.435.601-3.079.6-4.51-.001-5.124-2.15-8.89-1.984-11.189.494-3.989 4.294-3.285 14.74.01 21.212 1.275 2.504 2.867 4.073 4.733 4.666 2.499.795 5.114-.27 6.45-.976.705-.37 1.478-.557 2.252-.557z" fill="#690589"/><path d="m38.934 155.281c-.568 0-1.14-.045-1.709-.137-.852-.138-1.52-.805-1.657-1.657-.548-3.405.575-6.889 3.003-9.317 2.429-2.429 5.917-3.548 9.318-3.003.852.138 1.52.805 1.657 1.656.548 3.405-.574 6.889-3.003 9.318-2.023 2.023-4.777 3.14-7.609 3.14zm2.466-8.283c-1.146 1.146-1.828 2.669-1.949 4.264 1.595-.12 3.117-.803 4.264-1.948 1.146-1.146 1.828-2.669 1.949-4.264-1.596.12-3.118.803-4.264 1.948z" fill="#690589"/></svg>