<?xml version="1.0" encoding="iso-8859-1"?>
<!-- Generator: Adobe Illustrator 19.0.0, SVG Export Plug-In . SVG Version: 6.00 Build 0)  -->
<svg version="1.1" id="Capa_1" xmlns="http://www.w3.org/2000/svg" xmlns:xlink="http://www.w3.org/1999/xlink" x="0px" y="0px"
	 viewBox="0 0 512 512" style="enable-background:new 0 0 512 512;" xml:space="preserve">
<g>
	<path style="fill:#579ADD;" d="M247.248,45.175C335.112,30.83,412.919,20.011,500.511,7.507c1.899-0.272,3.608,1.201,3.608,3.12
		l0,0v229.519c0,1.739-1.406,3.149-3.145,3.149c-87.01,0.041-175.713,1.774-262.723,1.816c-1.743,0.001-3.154-1.414-3.154-3.157
		V65.563V49.7c0-1.563,1.144-2.89,2.69-3.119L247.248,45.175z"/>
	<path style="fill:#579ADD;" d="M207.899,51.088c1.889-0.25,3.567,1.22,3.567,3.126v187.75c0,1.739-1.413,3.147-3.152,3.149
		c-66.887,0.053-132.093,1.76-197.272,1.815c-1.744,0.001-3.16-1.415-3.16-3.158c0-4.298,0-166.899,0-163.199
		c0-1.549,1.124-2.868,2.654-3.113C26.363,74.918,208.9,50.956,207.899,51.088z"/>
	<path style="fill:#579ADD;" d="M11.042,266.926c65.154,0.054,130.334,1.733,197.194,0.081c1.77-0.044,3.231,1.375,3.231,3.146
		v189.489c0,1.905-1.683,3.375-3.572,3.126c-66.887-8.809-132.096-17.618-197.282-26.427c-1.564-0.212-2.731-1.547-2.731-3.125
		V270.084C7.881,268.341,9.297,266.925,11.042,266.926z"/>
	<path style="fill:#579ADD;" d="M247.248,268.742h253.718c1.741,0,3.153,1.412,3.153,3.153v222.243v7.205
		c0,1.941-1.734,3.418-3.652,3.107c-86.997-14.1-175.678-24.806-262.662-37.192c-1.556-0.222-2.709-1.555-2.709-3.125V271.896
		c0-1.741,1.412-3.153,3.153-3.153H247.248z"/>
</g>
<g>
	<path style="fill:#4987CE;" d="M255.067,241.893V62.078v-16.17c0-0.816,0.309-1.565,0.819-2.137
		c-2.87,0.464-5.748,0.932-8.637,1.404l-9.462,1.406c-1.546,0.23-2.69,1.557-2.69,3.119v15.863v176.392
		c0,1.743,1.411,3.158,3.154,3.157c6.488-0.003,13.002-0.032,19.508-0.053C256.232,244.808,255.067,243.491,255.067,241.893z"/>
	<path style="fill:#4987CE;" d="M27.852,243.698c0-8.702,0-162.277,0-166.932c0-0.741,0.26-1.426,0.688-1.976
		c-9.624,1.271-5.802,0.709-18.004,2.667c-1.529,0.246-2.654,1.565-2.654,3.113c0,7.175,0,151.565,0,163.199
		c0,1.744,1.416,3.16,3.16,3.158c6.455-0.005,12.911-0.038,19.368-0.073C28.95,246.546,27.852,245.25,27.852,243.698z"/>
	<path style="fill:#4987CE;" d="M209.963,267.479c-0.502-0.31-1.093-0.487-1.727-0.471L209.963,267.479L209.963,267.479z"/>
	<path style="fill:#4987CE;" d="M27.852,438.502V270.185c0-1.586,1.134-2.905,2.634-3.196c-6.482-0.033-12.965-0.057-19.445-0.063
		c-1.744-0.001-3.159,1.415-3.159,3.158v163.131c0,1.579,1.166,2.914,2.731,3.125c5.751,0.777,11.503,1.555,17.256,2.332
		C27.865,438.616,27.852,438.56,27.852,438.502z"/>
	<path style="fill:#4987CE;" d="M255.067,468.29V271.963c0-1.778,1.442-3.22,3.22-3.22h-11.04h-8.998
		c-1.741,0-3.153,1.412-3.153,3.153v192.24c0,1.571,1.153,2.904,2.709,3.125c5.865,0.836,11.741,1.662,17.62,2.483
		C255.203,469.304,255.067,468.812,255.067,468.29z"/>
</g>
<path d="M206.919,43.678C-1.253,71.189,22.953,67.896,9.349,70.077c-5.189,0.832-8.957,5.251-8.957,10.508v163.199
	c0,5.882,4.761,10.648,10.646,10.648c0.003,0,0.006,0,0.009,0c65.036-0.055,130.694-1.763,197.272-1.815
	c5.864-0.005,10.635-4.777,10.635-10.638V54.23C218.955,47.79,213.275,42.835,206.919,43.678z M203.977,237.646
	c-63.787,0.118-126.402,1.681-188.607,1.803V84.281c8.842-1.418-12.877,1.521,188.607-25.106V237.646z"/>
<path d="M208.05,259.536c-57.71,1.425-198.01-0.083-197.011-0.083c-5.883,0-10.646,4.763-10.646,10.647v163.132
	c0,5.302,3.962,9.836,9.216,10.547c1.054,0.143,196.121,26.521,198.697,26.521c5.861,0,10.648-4.753,10.648-10.642v-189.49
	C218.955,264.096,213.927,259.385,208.05,259.536z M203.977,454.714c-64.737-8.535-127.664-17.035-188.607-25.271V274.526
	c62.043,0.119,124.732,1.44,188.607,0V454.714z"/>
<path d="M499.453,0.109c-41.604,5.94-82.08,11.65-122.51,17.557c-4.093,0.598-6.926,4.401-6.328,8.493
	c0.598,4.092,4.394,6.926,8.493,6.328c38.599-5.64,76.862-11.045,117.522-16.845v220.185c-84.049,0.093-170.088,1.715-254.044,1.809
	V53.455c14.9-2.216,38.659-6.396,101.599-15.81c4.091-0.612,6.911-4.423,6.299-8.514c-0.612-4.09-4.426-6.912-8.514-6.299
	c-63.066,9.433-85.428,13.405-105.283,16.357c-5.175,0.769-9.079,5.294-9.079,10.526V241.97c0,5.88,4.755,10.645,10.64,10.645
	c82.463,0,176.023-1.774,262.73-1.815c5.861-0.003,10.63-4.776,10.63-10.638V10.642C511.608,4.176,505.868-0.806,499.453,0.109z"/>
<path d="M500.965,261.269H238.25c-5.868,0-10.642,4.774-10.642,10.642V464.15c0,5.266,3.93,9.798,9.143,10.539
	c86.516,12.319,175.875,23.127,262.52,37.17c6.455,1.05,12.338-3.937,12.338-10.5v-88.207c0-4.136-3.353-7.489-7.489-7.489
	s-7.489,3.353-7.489,7.489v83.109c-84.069-13.489-170.184-23.985-254.044-35.872V276.247H496.63v101.958
	c0,4.136,3.353,7.489,7.489,7.489s7.489-3.353,7.489-7.489V271.912C511.608,266.043,506.834,261.269,500.965,261.269z"/>
<g>
</g>
<g>
</g>
<g>
</g>
<g>
</g>
<g>
</g>
<g>
</g>
<g>
</g>
<g>
</g>
<g>
</g>
<g>
</g>
<g>
</g>
<g>
</g>
<g>
</g>
<g>
</g>
<g>
</g>
</svg>
