<?xml version="1.0" encoding="iso-8859-1"?>
<!-- Generator: Adobe Illustrator 19.0.0, SVG Export Plug-In . SVG Version: 6.00 Build 0)  -->
<svg version="1.1" id="Capa_1" xmlns="http://www.w3.org/2000/svg" xmlns:xlink="http://www.w3.org/1999/xlink" x="0px" y="0px"
	 viewBox="0 0 514.199 514.199" style="enable-background:new 0 0 514.199 514.199;" xml:space="preserve">
<path style="fill:#4CAF50;" d="M256.477,2.165C115.092,2.194,0.501,116.834,0.531,258.219c0.01,48.957,14.059,96.884,40.479,138.1
	L1.181,499.658c-2.121,5.496,0.615,11.671,6.111,13.792c1.229,0.474,2.534,0.717,3.851,0.715c1.222,0.006,2.435-0.203,3.584-0.619
	l106.667-38.08c120.012,74.745,277.894,38.048,352.638-81.965s38.048-277.894-81.965-352.638
	C351.384,15.525,304.405,2.117,256.477,2.165z"/>
<path style="fill:#FAFAFA;" d="M378.525,301.919c0,0-26.133-12.8-42.496-21.333c-18.517-9.536-40.277,8.32-50.517,18.475
	c-15.937-6.122-30.493-15.362-42.816-27.179c-11.819-12.321-21.059-26.877-27.179-42.816c10.155-10.261,27.968-32,18.475-50.517
	c-8.427-16.384-21.333-42.496-21.333-42.517c-1.811-3.594-5.49-5.863-9.515-5.867H181.81c-31.068,5.366-53.657,32.474-53.333,64
	c0,33.493,40.085,97.835,67.115,124.885s91.371,67.115,124.885,67.115c31.526,0.324,58.634-22.266,64-53.333v-21.333
	C384.481,307.431,382.172,303.717,378.525,301.919z"/>
<path d="M11.143,514.164c-5.891,0.006-10.672-4.764-10.678-10.655c-0.001-1.317,0.241-2.623,0.715-3.851L41.01,396.34
	C-35.892,276.997-1.486,117.91,117.857,41.008s278.431-42.496,355.332,76.847s42.496,278.431-76.847,355.332
	c-83.493,53.801-190.511,54.688-274.884,2.278l-106.667,38.08C13.621,513.963,12.386,514.172,11.143,514.164z M122.695,453.002
	c2.053,0.008,4.061,0.608,5.781,1.728c108.374,70.28,253.201,39.399,323.481-68.975c70.28-108.374,39.399-253.201-68.975-323.481
	S129.781,22.876,59.502,131.249C8.513,209.875,9.38,311.344,61.703,389.087c1.946,2.887,2.36,6.543,1.109,9.792l-33.387,86.763
	l89.6-32C120.202,453.215,121.444,452.998,122.695,453.002z"/>
<path d="M320.477,386.165c-33.493,0-97.856-40.107-124.885-67.115c-27.029-27.008-67.115-91.392-67.115-124.885
	c-0.324-31.526,22.266-58.634,53.333-64h21.333c4.059,0.004,7.763,2.311,9.557,5.952c0,0,12.8,26.133,21.333,42.496
	c9.493,18.496-8.32,40.256-18.453,50.517c6.122,15.937,15.362,30.493,27.179,42.816c12.323,11.817,26.879,21.057,42.816,27.179
	c10.24-10.155,32-27.925,50.517-18.453c16.384,8.405,42.475,21.333,42.496,21.333c3.595,1.802,5.872,5.472,5.888,9.493v21.333
	C379.11,363.899,352.003,386.489,320.477,386.165z M181.81,151.498c-18.99,5.492-32.045,22.899-32,42.667
	c0,24.725,34.859,83.776,60.885,109.781c26.027,26.005,85.056,60.885,109.781,60.885c19.768,0.045,37.175-13.01,42.667-32v-14.699
	c-8.725-4.267-25.259-12.501-36.885-18.475c-5.056-2.432-20.16,8.021-29.867,18.923c-2.755,3.055-7.003,4.286-10.965,3.179
	c-21.7-7.003-41.512-18.876-57.92-34.709c-15.795-16.419-27.63-36.23-34.603-57.92c-1.15-3.962,0.088-8.233,3.179-10.965
	c10.88-9.621,21.504-24.725,18.923-29.867c-5.995-11.541-14.165-28.075-18.496-36.8H181.81z"/>
<g>
</g>
<g>
</g>
<g>
</g>
<g>
</g>
<g>
</g>
<g>
</g>
<g>
</g>
<g>
</g>
<g>
</g>
<g>
</g>
<g>
</g>
<g>
</g>
<g>
</g>
<g>
</g>
<g>
</g>
</svg>
